<?xml version="1.0" encoding="UTF-8"?>
<svg id="Layer_1" xmlns="http://www.w3.org/2000/svg" version="1.1" viewBox="0 0 375.33 364.32">
  <!-- Generator: Adobe Illustrator 29.2.1, SVG Export Plug-In . SVG Version: 2.1.0 Build 116)  -->
  <defs>
    <style>
      .st0 {
        stroke-width: 6px;
      }

      .st0, .st1 {
        fill: none;
        stroke: #17d400;
        stroke-miterlimit: 10;
      }

      .st1 {
        stroke-width: 8px;
      }

      .st2 {
        fill: #0b0606;
      }

      .st3 {
        fill: #f19f01;
      }

      .st4 {
        font-family: HarlowSolid, 'Harlow Solid Italic';
        font-size: 33.23px;
      }

      .st5 {
        fill: #fff;
      }

      .st6 {
        fill: #17d400;
      }
    </style>
  </defs>
  <path class="st5" d="M435.44,38.23"/>
  <path class="st2" d="M299.02,183.56c5.87,4.84,11.36,8.68,13.77,16.45,2.11,6.8.8,10.73-5.73,13.55-8.12,3.5-16.19,3.69-24.82,1.96-1.13-.23-2.83-1.22-3.85-1.19s-2.47,1.42-3.5,1.83c-8.45,3.39-20.27,1.71-28.5-1.76-.56-.23-1.42-1-1.82-1-.99,0-2.09,2.54-3.17,3.1-.8.41-3.72,1.25-4.75,1.52-12.23,3.17-25.94,1.52-37.33-3.67-.35,1.85-1.79,5.46-3.47,6.4-3.63,2.02-10.55,4.59-14.61,6.06-7.64,2.77-15.45,4.34-23.46,5.67-11.69,1.94-20.72,2.97-32.56,1.64-3.35-.37-3.66.92-6.28,2.11-9.45,4.3-18.75,5.32-29.1,5.07-2.6-.06-5.86-.16-8.35-.74-1.75-.4-7.87-3.09-8.84-3.04-.66.04-3.46,2.23-4.56,2.67-6.94,2.77-15.93,3.77-23.25,2.25-4.16-.86-7.34-2.05-8.01-6.72-1.65-11.51,6.23-25.16,15.12-32.03.76-.58,2.71-1.3,3.19-1.98.43-.6.52-5.35.8-6.56,1.85-8.1,12.21-18.11,18.93-22.73,1.46-1,3.51-2.05,5.09-2.9-.18-1.75-1.27-3.32-1.25-5.14.03-4.39,5.74-12.19,8.63-15.51,12.12-13.87,39.15-26.43,57.09-29.67,3.34-.6,12.6-2.02,15.54-1.3,3.28.8,6.77,4.23,9.42,6.22,3.17-1.25,6.46-2.33,9.81-3.04,20.76-4.38,46,1.09,58.65,19.18,16.47,3.05,32.89,11.16,40.64,26.7.51,1.02,1.15,3.81,1.78,4.48s6.21,2.9,7.59,3.68c4.22,2.38,7.53,5.43,11.15,8.42ZM164.03,123.12c-.28-.25-.28-.88-.73-1.31-2.27-2.17-6.28-2.29-9.23-2.05-17.99,1.44-37.44,9.76-52.38,19.65-6.75,4.47-16.24,12.59-19.34,20.14-2.09,5.08-1.12,8.65,1.32,13.38s6.73,9.82,9.45,14.43c5.89,10,9.9,19.61,13.91,30.49s9.58,14.02,21.07,14.94c14.48,1.16,38.8-2.82,52.51-7.87,3.62-1.33,10.37-3.94,13.46-5.96,2.04-1.33,2.39-2.66,2.91-4.92,2.81-11.99-1.43-38.28-5.66-50.11-3.86-10.78-15.83-32.63-24.91-39.61-.62-.48-2.07-.92-2.39-1.2ZM228.32,132.74c-13.25-10.31-33.66-13.53-49.78-9.51l-8.02,2.47,4.7,6.42c18.74,22.22,23.81,49.08,24.76,77.69.02.66-.53,1.92-.29,2.3.32.5,7.04,3.02,8.11,3.33,8.17,2.31,19.06,3.11,27.32,1.01.98-.25,4.99-1.67,5.69-2.14.29-.19,1.85-2.48,2.07-2.94,4.51-9.63,4.21-24.46,4.42-35.04.28-13.91-8.06-35.09-18.98-43.59ZM263.41,152.78c-3.55-2.39-7.28-4.76-11.3-6.4-2.92-1.19-9.58-3.56-12.53-3.76-1.32-.09.25,1.48.4,1.8,4.93,10.5,9.47,20.49,9.16,32.52-.21,8.06-.39,19.09-1.97,26.84-.5,2.45-1.69,4.87-2.42,7.25,2.32,1.7,5.21,2.86,8.06,3.55,6.78,1.65,14.09,2.41,20.74-.09,3.62-1.36,3.81-4.71,4.61-8.23,4.61-20.11,3.38-41.31-14.75-53.49ZM81.52,171.48c-.98-.63-1.49.4-1.78.55-7.94,3.93-19.91,14.92-21.84,23.82-1.05,4.84-.45,9.47.89,14.18,1.69,5.95,8.39,21.46,13.46,24.77,10.28,6.74,31.67,5.29,42.82.99.64-.25,4.84-2.14,5.02-2.35.47-.54-.09-.52-.45-.63-2.46-.71-4.85-1.71-6.94-3.25-6.53-4.79-7.39-13.66-10.4-20.76-4.32-10.18-10.71-20.71-16.56-30.09-1.07-1.72-2.84-3.77-3.75-5.49-.22-.43-.23-1.59-.46-1.74ZM296.31,183.45c-4.84-3.81-9.98-7.46-15.86-9.5,2.2,10.85,1.58,22.68-.84,33.46-.3,1.34-.99,2.85-1.23,4.12-.07.37-.25.51.19.79.47.31,3.32,1.1,4.06,1.26,7.78,1.77,16.03,1.51,23.4-1.67,4.96-2.14,6.61-4.58,5.25-10.07-1.91-7.73-9.05-13.71-14.97-18.38ZM55.56,204.01c-6.86,3.44-12.05,11.19-14.87,18.17-1.81,4.48-3.39,11.47-.92,15.95.7,1.27,5.44,2.49,6.95,2.75,7.08,1.25,14.63-.19,20.99-3.01,5.18-2.3,3-1.73.38-4.89-2.19-2.64-5.66-9.31-7.17-12.57-2.38-5.18-3.97-10.89-5.37-16.4Z"/>
  <path class="st1" d="M170.52,32.78c34.19,0,65.84,10.85,91.7,29.31.27.2.55.39.82.59"/>
  <path class="st1" d="M315.97,128.88s0,.02.01.03c8.1,19.02,12.59,39.94,12.59,61.92,0,87.29-70.76,158.05-158.05,158.05-38.59,0-73.94-13.83-101.39-36.8"/>
  <path class="st1" d="M69.13,312.09c-34.64-28.99-56.67-72.55-56.67-121.26,0-87.29,70.76-158.05,158.05-158.05"/>
  <path class="st3" d="M164.03,123.12c.32.29,1.78.73,2.39,1.2,9.08,6.98,21.05,28.83,24.91,39.61,4.24,11.83,8.47,38.12,5.66,50.11-.53,2.25-.87,3.58-2.91,4.92-3.09,2.02-9.84,4.63-13.46,5.96-13.71,5.05-38.03,9.03-52.51,7.87-11.49-.92-17.08-4.13-21.07-14.94s-8.03-20.49-13.91-30.49c-2.72-4.62-7.02-9.71-9.45-14.43s-3.4-8.31-1.32-13.38c3.1-7.55,12.59-15.67,19.34-20.14,14.93-9.89,34.38-18.21,52.38-19.65,2.95-.24,6.96-.11,9.23,2.05.45.43.45,1.06.73,1.31ZM107.14,146.74c-.41.04-3.19,1.8-3.76,2.2-3.37,2.37-10.56,9.12-11.81,12.93-1.11,3.35.35,9.78,1.74,13.02.42.99,2.1,2.67,2.26,1.1.03-.28-.57-.97-.69-1.41-1.16-4.15-2.99-8.45-1.47-12.74,1.28-3.61,6.72-8.52,9.8-10.87.83-.64,4.66-2.91,4.83-3.32s-.52-.93-.9-.89Z"/>
  <path class="st3" d="M228.32,132.74c10.92,8.5,19.26,29.68,18.98,43.59-.21,10.59.08,25.41-4.42,35.04-.22.46-1.78,2.75-2.07,2.94-.71.47-4.72,1.89-5.69,2.14-8.26,2.09-19.15,1.3-27.32-1.01-1.07-.3-7.79-2.83-8.11-3.33-.24-.38.31-1.63.29-2.3-.95-28.61-6.02-55.47-24.76-77.69l-4.7-6.42,8.02-2.47c16.12-4.02,36.53-.8,49.78,9.51ZM198.67,129.12c.58-.37.14-1.36-.76-1.53-1.23-.22-4.57-.11-5.95-.02-1.59.1-8.37,1.15-8.86,2.74-.42,1.37,2.9,6.98,3.55,6.98.14,0,.76-.67.73-1.03-.07-.89-3.32-4.77-2.77-5.54,1.93-.4,3.83-1,5.8-1.25,1.41-.18,7.91-.13,8.26-.35Z"/>
  <path class="st3" d="M81.52,171.48c.23.15.24,1.31.46,1.74.91,1.73,2.68,3.77,3.75,5.49,5.84,9.38,12.24,19.91,16.56,30.09,3.01,7.1,3.87,15.97,10.4,20.76,2.09,1.53,4.48,2.53,6.94,3.25.36.11.92.09.45.63-.18.21-4.38,2.1-5.02,2.35-11.16,4.3-32.55,5.75-42.82-.99-5.06-3.32-11.77-18.82-13.46-24.77-1.34-4.71-1.94-9.34-.89-14.18,1.93-8.91,13.9-19.89,21.84-23.82.3-.15.81-1.17,1.78-.55ZM68.92,185.87c-.4.07-3.47,3.92-3.9,4.58-2.63,4.03-3.16,7.69-2.25,12.46.34,1.79,1.55.92,1.7-.73.4-4.41-.96-6.17,1.6-10.68.57-1,3.89-4.56,3.89-4.87,0-.11-.71-.81-1.05-.76Z"/>
  <path class="st3" d="M263.41,152.78c18.13,12.18,19.37,33.38,14.75,53.49-.81,3.52-1,6.87-4.61,8.23-6.65,2.5-13.95,1.75-20.74.09-2.84-.69-5.73-1.85-8.06-3.55.73-2.38,1.92-4.81,2.42-7.25,1.58-7.75,1.76-18.79,1.97-26.84.31-12.03-4.23-22.02-9.16-32.52-.15-.31-1.72-1.89-.4-1.8,2.95.2,9.61,2.56,12.53,3.76,4.02,1.64,7.75,4.01,11.3,6.4ZM251.64,154.21c.54-.49,4.89,1.53,5.7,1.97,1,.53,3.21,2.38,3.98,2.6,1.35.39.96-1.04.19-1.76-.23-.21-2.8-1.92-3.18-2.14-3.97-2.26-11.66-4.61-6.84,2.77,1.74-.14-.11-3.2.15-3.44Z"/>
  <path class="st3" d="M296.31,183.45c5.92,4.67,13.06,10.66,14.97,18.38,1.36,5.49-.29,7.93-5.25,10.07-7.37,3.18-15.62,3.44-23.4,1.67-.74-.17-3.59-.96-4.06-1.26-.43-.28-.25-.42-.19-.79.24-1.27.93-2.77,1.23-4.12,2.42-10.77,3.03-22.6.84-33.46,5.89,2.05,11.02,5.69,15.86,9.5ZM287.03,185.22c.29-.32,4.11,1.99,4.67,2.37.99.67,3,2.71,3.78,3.12.55.28.6.05.94-.32.12-.54-.19-.75-.46-1.1-.78-1.05-6.75-5.22-7.98-5.48-3.96-.84-2.45,3.94-1.43,3.93,1.14-.71.47-1.41.47-2.5Z"/>
  <path class="st3" d="M55.56,204.01c1.4,5.51,2.99,11.22,5.37,16.4,1.5,3.26,4.98,9.92,7.17,12.57,2.62,3.16,4.79,2.59-.38,4.89-6.37,2.83-13.91,4.26-20.99,3.01-1.51-.27-6.25-1.48-6.95-2.75-2.47-4.48-.89-11.47.92-15.95,2.82-6.97,8.01-14.73,14.87-18.17ZM49.78,215.29c-.99.22-4.32,6.22-4.79,7.43-.79,2.02-1.95,6.3-1.96,8.4,0,1.13.95,1.6,1.51.54.42-.8.73-4.12,1.1-5.48s.88-2.97,1.42-4.22c.49-1.14,3.6-5.81,3.5-6.2-.05-.2-.5-.53-.78-.47Z"/>
  <path class="st2" d="M107.14,146.74c.37-.04,1.07.49.9.89s-4,2.69-4.83,3.32c-3.08,2.35-8.52,7.26-9.8,10.87-1.52,4.29.31,8.59,1.47,12.74.12.44.72,1.14.69,1.41-.16,1.57-1.84-.11-2.26-1.1-1.39-3.24-2.84-9.66-1.74-13.02,1.26-3.81,8.45-10.56,11.81-12.93.57-.4,3.34-2.16,3.76-2.2Z"/>
  <path class="st2" d="M198.67,129.12c-.35.22-6.85.17-8.26.35-1.97.25-3.87.85-5.8,1.25-.55.77,2.7,4.64,2.77,5.54.03.36-.59,1.03-.73,1.03-.65,0-3.97-5.61-3.55-6.98.49-1.59,7.26-2.63,8.86-2.74,1.38-.09,4.73-.2,5.95.02.89.16,1.34,1.16.76,1.53Z"/>
  <path class="st2" d="M68.92,185.87c.34-.06,1.05.65,1.05.76,0,.31-3.32,3.87-3.89,4.87-2.56,4.51-1.2,6.27-1.6,10.68-.15,1.64-1.35,2.52-1.7.73-.91-4.77-.39-8.43,2.25-12.46.43-.65,3.49-4.51,3.9-4.58Z"/>
  <path class="st2" d="M251.64,154.21c-.27.24,1.59,3.3-.15,3.44-4.81-7.38,2.87-5.03,6.84-2.77.39.22,2.95,1.93,3.18,2.14.78.71,1.17,2.15-.19,1.76-.77-.22-2.98-2.07-3.98-2.6-.82-.43-5.16-2.45-5.7-1.97Z"/>
  <path class="st2" d="M287.03,185.22c0,1.09.67,1.79-.47,2.5-1.02.01-2.53-4.77,1.43-3.93,1.23.26,7.2,4.43,7.98,5.48.26.35.58.57.46,1.1-.34.37-.39.61-.94.32-.78-.4-2.78-2.45-3.78-3.12-.56-.38-4.38-2.69-4.67-2.37Z"/>
  <path class="st2" d="M49.78,215.29c.28-.06.73.27.78.47.1.39-3.01,5.06-3.5,6.2-.54,1.25-1.06,2.9-1.42,4.22s-.68,4.68-1.1,5.48c-.56,1.06-1.52.59-1.51-.54.01-2.1,1.17-6.38,1.96-8.4.48-1.21,3.8-7.21,4.79-7.43Z"/>
  <path class="st2" d="M299.38,183.25c5.87,4.84,11.36,8.68,13.77,16.45,2.11,6.8.8,10.73-5.73,13.55-8.12,3.5-16.19,3.69-24.82,1.96-1.13-.23-2.83-1.22-3.85-1.19s-2.47,1.42-3.5,1.83c-8.45,3.39-20.27,1.71-28.5-1.76-.56-.23-1.42-1-1.82-1-.99,0-2.09,2.54-3.17,3.1-.8.41-3.72,1.25-4.75,1.52-12.23,3.17-25.94,1.52-37.33-3.67-.35,1.85-1.79,5.46-3.47,6.4-3.63,2.02-10.55,4.59-14.61,6.06-7.64,2.77-15.45,4.34-23.46,5.67-11.69,1.94-20.72,2.97-32.56,1.64-3.35-.37-3.66.92-6.28,2.11-9.45,4.3-18.75,5.32-29.1,5.07-2.6-.06-5.86-.16-8.35-.74-1.75-.4-7.87-3.09-8.84-3.04-.66.04-3.46,2.23-4.56,2.67-6.94,2.77-15.93,3.77-23.25,2.25-4.16-.86-7.34-2.05-8.01-6.72-1.65-11.51,6.23-25.16,15.12-32.03.76-.58,2.71-1.3,3.19-1.98.43-.6.52-5.35.8-6.56,1.85-8.1,12.21-18.11,18.93-22.73,1.46-1,3.51-2.05,5.09-2.9-.18-1.75-1.27-3.32-1.25-5.14.03-4.39,5.74-12.19,8.63-15.51,12.12-13.87,39.15-26.43,57.09-29.67,3.34-.6,12.6-2.02,15.54-1.3,3.28.8,6.77,4.23,9.42,6.22,3.17-1.25,6.46-2.33,9.81-3.04,20.76-4.38,46,1.09,58.65,19.18,16.47,3.05,32.89,11.16,40.64,26.7.51,1.02,1.15,3.81,1.78,4.48s6.21,2.9,7.59,3.68c4.22,2.38,7.53,5.43,11.15,8.42ZM164.39,122.81c-.28-.25-.28-.88-.73-1.31-2.27-2.17-6.28-2.29-9.23-2.05-17.99,1.44-37.44,9.76-52.38,19.65-6.75,4.47-16.24,12.59-19.34,20.14-2.09,5.08-1.12,8.65,1.32,13.38s6.73,9.82,9.45,14.43c5.89,10,9.9,19.61,13.91,30.49,3.99,10.81,9.58,14.02,21.07,14.94,14.48,1.16,38.8-2.82,52.51-7.87,3.62-1.33,10.37-3.94,13.46-5.96,2.04-1.33,2.39-2.66,2.91-4.92,2.81-11.99-1.43-38.28-5.66-50.11-3.86-10.78-15.83-32.63-24.91-39.61-.62-.48-2.07-.92-2.39-1.2ZM228.68,132.44c-13.25-10.31-33.66-13.53-49.78-9.51l-8.02,2.47,4.7,6.42c18.74,22.22,23.81,49.08,24.76,77.69.02.66-.53,1.92-.29,2.3.32.5,7.04,3.02,8.11,3.33,8.17,2.31,19.06,3.11,27.32,1.01.98-.25,4.99-1.67,5.69-2.14.29-.19,1.85-2.48,2.07-2.94,4.51-9.63,4.21-24.46,4.42-35.04.28-13.91-8.06-35.09-18.98-43.59ZM263.77,152.47c-3.55-2.39-7.28-4.76-11.3-6.4-2.92-1.19-9.58-3.56-12.53-3.76-1.32-.09.25,1.48.4,1.8,4.93,10.5,9.47,20.49,9.16,32.52-.21,8.06-.39,19.09-1.97,26.84-.5,2.45-1.69,4.87-2.42,7.25,2.32,1.7,5.21,2.86,8.06,3.55,6.78,1.65,14.09,2.41,20.74-.09,3.62-1.36,3.81-4.71,4.61-8.23,4.61-20.11,3.38-41.31-14.75-53.49ZM81.88,171.17c-.98-.63-1.49.4-1.78.55-7.94,3.93-19.91,14.92-21.84,23.82-1.05,4.84-.45,9.47.89,14.18,1.69,5.95,8.39,21.46,13.46,24.77,10.28,6.74,31.67,5.29,42.82.99.64-.25,4.84-2.14,5.02-2.35.47-.54-.09-.52-.45-.63-2.46-.71-4.85-1.71-6.94-3.25-6.53-4.79-7.39-13.66-10.4-20.76-4.32-10.18-10.71-20.71-16.56-30.09-1.07-1.72-2.84-3.77-3.75-5.49-.22-.43-.23-1.59-.46-1.74ZM296.68,183.14c-4.84-3.81-9.98-7.46-15.86-9.5,2.2,10.85,1.58,22.68-.84,33.46-.3,1.34-.99,2.85-1.23,4.12-.07.37-.25.51.19.79.47.31,3.32,1.1,4.06,1.26,7.78,1.77,16.03,1.51,23.4-1.67,4.96-2.14,6.61-4.58,5.25-10.07-1.91-7.73-9.05-13.71-14.97-18.38ZM55.92,203.71c-6.86,3.44-12.05,11.19-14.87,18.17-1.81,4.48-3.39,11.47-.92,15.95.7,1.27,5.44,2.49,6.95,2.75,7.08,1.25,14.63-.19,20.99-3.01,5.18-2.3,3-1.73.38-4.89-2.19-2.64-5.66-9.31-7.17-12.57-2.38-5.18-3.97-10.89-5.37-16.4Z"/>
  <path class="st3" d="M164.39,122.81c.32.29,1.78.73,2.39,1.2,9.08,6.98,21.05,28.83,24.91,39.61,4.24,11.83,8.47,38.12,5.66,50.11-.53,2.25-.87,3.58-2.91,4.92-3.09,2.02-9.84,4.63-13.46,5.96-13.71,5.05-38.03,9.03-52.51,7.87-11.49-.92-17.08-4.13-21.07-14.94-4.02-10.88-8.03-20.49-13.91-30.49-2.72-4.62-7.02-9.71-9.45-14.43s-3.4-8.31-1.32-13.38c3.1-7.55,12.59-15.67,19.34-20.14,14.93-9.89,34.38-18.21,52.38-19.65,2.95-.24,6.96-.11,9.23,2.05.45.43.45,1.06.73,1.31ZM107.5,146.43c-.41.04-3.19,1.8-3.76,2.2-3.37,2.37-10.56,9.12-11.81,12.93-1.11,3.35.35,9.78,1.74,13.02.42.99,2.1,2.67,2.26,1.1.03-.28-.57-.97-.69-1.41-1.16-4.15-2.99-8.45-1.47-12.74,1.28-3.61,6.72-8.52,9.8-10.87.83-.64,4.66-2.91,4.83-3.32s-.52-.93-.9-.89Z"/>
  <path class="st3" d="M228.68,132.44c10.92,8.5,19.26,29.68,18.98,43.59-.21,10.59.08,25.41-4.42,35.04-.22.46-1.78,2.75-2.07,2.94-.71.47-4.72,1.89-5.69,2.14-8.26,2.09-19.15,1.3-27.32-1.01-1.07-.3-7.79-2.83-8.11-3.33-.24-.38.31-1.63.29-2.3-.95-28.61-6.02-55.47-24.76-77.69l-4.7-6.42,8.02-2.47c16.12-4.02,36.53-.8,49.78,9.51ZM199.03,128.82c.58-.37.14-1.36-.76-1.53-1.23-.22-4.57-.11-5.95-.02-1.59.1-8.37,1.15-8.86,2.74-.42,1.37,2.9,6.98,3.55,6.98.14,0,.76-.67.73-1.03-.07-.89-3.32-4.77-2.77-5.54,1.93-.4,3.83-1,5.8-1.25,1.41-.18,7.91-.13,8.26-.35Z"/>
  <path class="st3" d="M81.88,171.17c.23.15.24,1.31.46,1.74.91,1.73,2.68,3.77,3.75,5.49,5.84,9.38,12.24,19.91,16.56,30.09,3.01,7.1,3.87,15.97,10.4,20.76,2.09,1.53,4.48,2.53,6.94,3.25.36.11.92.09.45.63-.18.21-4.38,2.1-5.02,2.35-11.16,4.3-32.55,5.75-42.82-.99-5.06-3.32-11.77-18.82-13.46-24.77-1.34-4.71-1.94-9.34-.89-14.18,1.93-8.91,13.9-19.89,21.84-23.82.3-.15.81-1.17,1.78-.55ZM69.28,185.56c-.4.07-3.47,3.92-3.9,4.58-2.63,4.03-3.16,7.69-2.25,12.46.34,1.79,1.55.92,1.7-.73.4-4.41-.96-6.17,1.6-10.68.57-1,3.89-4.56,3.89-4.87,0-.11-.71-.81-1.05-.76Z"/>
  <path class="st3" d="M263.77,152.47c18.13,12.18,19.37,33.38,14.75,53.49-.81,3.52-1,6.87-4.61,8.23-6.65,2.5-13.95,1.75-20.74.09-2.84-.69-5.73-1.85-8.06-3.55.73-2.38,1.92-4.81,2.42-7.25,1.58-7.75,1.76-18.79,1.97-26.84.31-12.03-4.23-22.02-9.16-32.52-.15-.31-1.72-1.89-.4-1.8,2.95.2,9.61,2.56,12.53,3.76,4.02,1.64,7.75,4.01,11.3,6.4ZM252,153.91c.54-.49,4.89,1.53,5.7,1.97,1,.53,3.21,2.38,3.98,2.6,1.35.39.96-1.04.19-1.76-.23-.21-2.8-1.92-3.18-2.14-3.97-2.26-11.66-4.61-6.84,2.77,1.74-.14-.11-3.2.15-3.44Z"/>
  <path class="st3" d="M296.68,183.14c5.92,4.67,13.06,10.66,14.97,18.38,1.36,5.49-.29,7.93-5.25,10.07-7.37,3.18-15.62,3.44-23.4,1.67-.74-.17-3.59-.96-4.06-1.26-.43-.28-.25-.42-.19-.79.24-1.27.93-2.77,1.23-4.12,2.42-10.77,3.03-22.6.84-33.46,5.89,2.05,11.02,5.69,15.86,9.5ZM287.39,184.91c.29-.32,4.11,1.99,4.67,2.37.99.67,3,2.71,3.78,3.12.55.28.6.05.94-.32.12-.54-.19-.75-.46-1.1-.78-1.05-6.75-5.22-7.98-5.48-3.96-.84-2.45,3.94-1.43,3.93,1.14-.71.47-1.41.47-2.5Z"/>
  <path class="st3" d="M55.92,203.71c1.4,5.51,2.99,11.22,5.37,16.4,1.5,3.26,4.98,9.92,7.17,12.57,2.62,3.16,4.79,2.59-.38,4.89-6.37,2.83-13.91,4.26-20.99,3.01-1.51-.27-6.25-1.48-6.95-2.75-2.47-4.48-.89-11.47.92-15.95,2.82-6.97,8.01-14.73,14.87-18.17ZM50.14,214.98c-.99.22-4.32,6.22-4.79,7.43-.79,2.02-1.95,6.3-1.96,8.4,0,1.13.95,1.6,1.51.54.42-.8.73-4.12,1.1-5.48s.88-2.97,1.42-4.22c.49-1.14,3.6-5.81,3.5-6.2-.05-.2-.5-.53-.78-.47Z"/>
  <path class="st2" d="M107.5,146.43c.37-.04,1.07.49.9.89s-4,2.69-4.83,3.32c-3.08,2.35-8.52,7.26-9.8,10.87-1.52,4.29.31,8.59,1.47,12.74.12.44.72,1.14.69,1.41-.16,1.57-1.84-.11-2.26-1.1-1.39-3.24-2.84-9.66-1.74-13.02,1.26-3.81,8.45-10.56,11.81-12.93.57-.4,3.34-2.16,3.76-2.2Z"/>
  <path class="st2" d="M199.03,128.82c-.35.22-6.85.17-8.26.35-1.97.25-3.87.85-5.8,1.25-.55.77,2.7,4.64,2.77,5.54.03.36-.59,1.03-.73,1.03-.65,0-3.97-5.61-3.55-6.98.49-1.59,7.26-2.63,8.86-2.74,1.38-.09,4.73-.2,5.95.02.89.16,1.34,1.16.76,1.53Z"/>
  <path class="st2" d="M69.28,185.56c.34-.06,1.05.65,1.05.76,0,.31-3.32,3.87-3.89,4.87-2.56,4.51-1.2,6.27-1.6,10.68-.15,1.64-1.35,2.52-1.7.73-.91-4.77-.39-8.43,2.25-12.46.43-.65,3.49-4.51,3.9-4.58Z"/>
  <path class="st2" d="M252,153.91c-.27.24,1.59,3.3-.15,3.44-4.81-7.38,2.87-5.03,6.84-2.77.39.22,2.95,1.93,3.18,2.14.78.71,1.17,2.15-.19,1.76-.77-.22-2.98-2.07-3.98-2.6-.82-.43-5.16-2.45-5.7-1.97Z"/>
  <path class="st2" d="M287.39,184.91c0,1.09.67,1.79-.47,2.5-1.02.01-2.53-4.77,1.43-3.93,1.23.26,7.2,4.43,7.98,5.48.26.35.58.57.46,1.1-.34.37-.39.61-.94.32-.78-.4-2.78-2.45-3.78-3.12-.56-.38-4.38-2.69-4.67-2.37Z"/>
  <path class="st2" d="M50.14,214.98c.28-.06.73.27.78.47.1.39-3.01,5.06-3.5,6.2-.54,1.25-1.06,2.9-1.42,4.22s-.68,4.68-1.1,5.48c-.56,1.06-1.52.59-1.51-.54.01-2.1,1.17-6.38,1.96-8.4.48-1.21,3.8-7.21,4.79-7.43Z"/>
  <polygon class="st3" points="163.29 121.18 166.96 124.16 164.03 123.12 163.29 121.18"/>
  <path class="st5" d="M226.91,61.73"/>
  <path class="st6" d="M356.81,17.38c-2.32,2.2-4.62,4.69-6.82,6.84-7.89,7.99-15.78,15.99-23.69,23.97-28,28.26-56.41,57.03-84.65,85.43l-.08.08c-14.75,14.84-45.71,46-59.38,59.69-2.21,2.04-4.37,4.61-7.32,2.45-1.52-1.02-3.49-2.98-6.17-5.63-8.65-8.63-23.1-23-31.89-31.78-4.08-4.11-7.04-6.96-9.82-7.43-4.34-.87-8.53,3.66-7.18,7.98.59,1.75,1.72,3.13,3.03,4.55,14.06,14.39,38.21,38.33,48.77,49.06,3.59,3.58,5.07,5,6.15,4.84,16.16-14.82,150.37-152.1,189.03-191.1-3.29-3.04-6.41-6.29-9.99-8.95Z"/>
  <text class="st4" transform="translate(62.72 271.34) rotate(-8.75)"><tspan x="0" y="0">Hansens Bageri</tspan></text>
  <path class="st0" d="M269.5,51.61"/>
</svg>